<svg width="101" height="100" viewBox="0 0 101 100" fill="none" xmlns="http://www.w3.org/2000/svg">
<rect x="100.5" width="100" height="100" rx="28" transform="rotate(90 100.5 0)" fill="#C58DE7"/>
<path d="M46.2188 75H15.1875V69.0625L29.9062 53.25C31.0521 52 32.0208 50.8646 32.8125 49.8438C33.6042 48.8229 34.25 47.8854 34.75 47.0312C35.2292 46.1979 35.5729 45.4167 35.7812 44.6875C36.0104 43.9583 36.125 43.25 36.125 42.5625C36.125 41.5417 35.9792 40.6354 35.6875 39.8438C35.3958 39.0521 34.9896 38.375 34.4688 37.8125C33.9271 37.2708 33.2812 36.8542 32.5312 36.5625C31.8021 36.2708 30.9896 36.125 30.0938 36.125C28.9271 36.125 27.8958 36.2917 27 36.625C26.125 36.9375 25.3958 37.4062 24.8125 38.0312C24.2083 38.6771 23.75 39.4792 23.4375 40.4375C23.125 41.3958 22.9688 42.4896 22.9688 43.7188H14.25C14.25 41.6979 14.6354 39.7917 15.4062 38C16.1771 36.1875 17.2708 34.6042 18.6875 33.25C20.0833 31.8958 21.7708 30.8333 23.75 30.0625C25.75 29.2708 27.9583 28.875 30.375 28.875C32.6875 28.875 34.7292 29.1979 36.5 29.8438C38.2917 30.4896 39.7917 31.3958 41 32.5625C42.1875 33.7292 43.0938 35.1354 43.7188 36.7812C44.3438 38.4062 44.6562 40.2083 44.6562 42.1875C44.6562 43.6875 44.4167 45.125 43.9375 46.5C43.4792 47.8542 42.8229 49.1979 41.9688 50.5312C41.0938 51.8646 40.0521 53.2292 38.8438 54.625C37.6354 56 36.2917 57.4479 34.8125 58.9688L26.25 68.0312H46.2188V75ZM63.6562 48.4375H68.375C69.625 48.4375 70.6979 48.2708 71.5938 47.9375C72.5104 47.5833 73.25 47.0938 73.8125 46.4688C74.3333 45.9271 74.7188 45.2708 74.9688 44.5C75.2396 43.7083 75.375 42.8542 75.375 41.9375C75.375 41.0417 75.2396 40.2292 74.9688 39.5C74.7188 38.75 74.3333 38.1042 73.8125 37.5625C73.2917 37.0417 72.625 36.6354 71.8125 36.3438C71.0208 36.0521 70.0938 35.9062 69.0312 35.9062C68.1562 35.9062 67.3333 36.0312 66.5625 36.2812C65.8125 36.5312 65.1562 36.8854 64.5938 37.3438C64.0104 37.8229 63.5521 38.3958 63.2188 39.0625C62.8854 39.7292 62.7188 40.4792 62.7188 41.3125H54.0312C54.0312 39.4583 54.4062 37.7708 55.1562 36.25C55.9271 34.7292 56.9792 33.4167 58.3125 32.3125C59.6458 31.2292 61.2083 30.3854 63 29.7812C64.8125 29.1771 66.7604 28.875 68.8438 28.875C71.0938 28.875 73.1562 29.1562 75.0312 29.7188C76.9062 30.2604 78.5104 31.0729 79.8438 32.1562C81.1771 33.2604 82.2083 34.625 82.9375 36.25C83.6875 37.8542 84.0625 39.7188 84.0625 41.8438C84.0625 42.8229 83.9167 43.7917 83.625 44.75C83.3333 45.6875 82.9062 46.5833 82.3438 47.4375C81.7812 48.2917 81.0833 49.0833 80.25 49.8125C79.4167 50.5208 78.4583 51.1354 77.375 51.6562C78.6458 52.1146 79.7396 52.6979 80.6562 53.4062C81.5938 54.1146 82.3646 54.9167 82.9688 55.8125C83.5729 56.7292 84.0208 57.7292 84.3125 58.8125C84.6042 59.8958 84.75 61.0417 84.75 62.25C84.75 64.375 84.3438 66.2708 83.5312 67.9375C82.7188 69.6042 81.6042 71 80.1875 72.125C78.7708 73.2708 77.0833 74.1458 75.125 74.75C73.1875 75.3333 71.0938 75.625 68.8438 75.625C66.9062 75.625 65.0104 75.3646 63.1562 74.8438C61.3229 74.3021 59.6875 73.4896 58.25 72.4062C56.8125 71.3438 55.6562 70 54.7812 68.375C53.9271 66.75 53.5 64.8333 53.5 62.625H62.1875C62.1875 63.5 62.3542 64.3125 62.6875 65.0625C63.0208 65.7917 63.5 66.4167 64.125 66.9375C64.7292 67.4792 65.4479 67.9062 66.2812 68.2188C67.1146 68.5104 68.0312 68.6562 69.0312 68.6562C70.1562 68.6562 71.1667 68.5 72.0625 68.1875C72.9583 67.875 73.7083 67.4167 74.3125 66.8125C74.8958 66.2708 75.3333 65.6042 75.625 64.8125C75.9375 64.0208 76.0938 63.1354 76.0938 62.1562C76.0938 60.9271 75.9167 59.875 75.5625 59C75.2083 58.125 74.6979 57.4062 74.0312 56.8438C73.3438 56.2812 72.5208 55.8646 71.5625 55.5938C70.625 55.3229 69.5625 55.1875 68.375 55.1875H63.6562V48.4375Z" fill="#030203"/>
</svg>
