<svg width="85" height="100" viewBox="0 0 85 100" fill="none" xmlns="http://www.w3.org/2000/svg">
<path d="M39.2891 69H16.0156V64.5469L27.0547 52.6875C27.9141 51.75 28.6406 50.8984 29.2344 50.1328C29.8281 49.3672 30.3125 48.6641 30.6875 48.0234C31.0469 47.3984 31.3047 46.8125 31.4609 46.2656C31.6328 45.7188 31.7188 45.1875 31.7188 44.6719C31.7188 43.9062 31.6094 43.2266 31.3906 42.6328C31.1719 42.0391 30.8672 41.5312 30.4766 41.1094C30.0703 40.7031 29.5859 40.3906 29.0234 40.1719C28.4766 39.9531 27.8672 39.8438 27.1953 39.8438C26.3203 39.8438 25.5469 39.9688 24.875 40.2188C24.2188 40.4531 23.6719 40.8047 23.2344 41.2734C22.7812 41.7578 22.4375 42.3594 22.2031 43.0781C21.9688 43.7969 21.8516 44.6172 21.8516 45.5391H15.3125C15.3125 44.0234 15.6016 42.5938 16.1797 41.25C16.7578 39.8906 17.5781 38.7031 18.6406 37.6875C19.6875 36.6719 20.9531 35.875 22.4375 35.2969C23.9375 34.7031 25.5938 34.4062 27.4062 34.4062C29.1406 34.4062 30.6719 34.6484 32 35.1328C33.3438 35.6172 34.4688 36.2969 35.375 37.1719C36.2656 38.0469 36.9453 39.1016 37.4141 40.3359C37.8828 41.5547 38.1172 42.9062 38.1172 44.3906C38.1172 45.5156 37.9375 46.5938 37.5781 47.625C37.2344 48.6406 36.7422 49.6484 36.1016 50.6484C35.4453 51.6484 34.6641 52.6719 33.7578 53.7188C32.8516 54.75 31.8438 55.8359 30.7344 56.9766L24.3125 63.7734H39.2891V69ZM52.3672 49.0781H55.9062C56.8438 49.0781 57.6484 48.9531 58.3203 48.7031C59.0078 48.4375 59.5625 48.0703 59.9844 47.6016C60.375 47.1953 60.6641 46.7031 60.8516 46.125C61.0547 45.5312 61.1562 44.8906 61.1562 44.2031C61.1562 43.5312 61.0547 42.9219 60.8516 42.375C60.6641 41.8125 60.375 41.3281 59.9844 40.9219C59.5938 40.5312 59.0938 40.2266 58.4844 40.0078C57.8906 39.7891 57.1953 39.6797 56.3984 39.6797C55.7422 39.6797 55.125 39.7734 54.5469 39.9609C53.9844 40.1484 53.4922 40.4141 53.0703 40.7578C52.6328 41.1172 52.2891 41.5469 52.0391 42.0469C51.7891 42.5469 51.6641 43.1094 51.6641 43.7344H45.1484C45.1484 42.3438 45.4297 41.0781 45.9922 39.9375C46.5703 38.7969 47.3594 37.8125 48.3594 36.9844C49.3594 36.1719 50.5312 35.5391 51.875 35.0859C53.2344 34.6328 54.6953 34.4062 56.2578 34.4062C57.9453 34.4062 59.4922 34.6172 60.8984 35.0391C62.3047 35.4453 63.5078 36.0547 64.5078 36.8672C65.5078 37.6953 66.2812 38.7188 66.8281 39.9375C67.3906 41.1406 67.6719 42.5391 67.6719 44.1328C67.6719 44.8672 67.5625 45.5938 67.3438 46.3125C67.125 47.0156 66.8047 47.6875 66.3828 48.3281C65.9609 48.9688 65.4375 49.5625 64.8125 50.1094C64.1875 50.6406 63.4688 51.1016 62.6562 51.4922C63.6094 51.8359 64.4297 52.2734 65.1172 52.8047C65.8203 53.3359 66.3984 53.9375 66.8516 54.6094C67.3047 55.2969 67.6406 56.0469 67.8594 56.8594C68.0781 57.6719 68.1875 58.5312 68.1875 59.4375C68.1875 61.0312 67.8828 62.4531 67.2734 63.7031C66.6641 64.9531 65.8281 66 64.7656 66.8438C63.7031 67.7031 62.4375 68.3594 60.9688 68.8125C59.5156 69.25 57.9453 69.4688 56.2578 69.4688C54.8047 69.4688 53.3828 69.2734 51.9922 68.8828C50.6172 68.4766 49.3906 67.8672 48.3125 67.0547C47.2344 66.2578 46.3672 65.25 45.7109 64.0312C45.0703 62.8125 44.75 61.375 44.75 59.7188H51.2656C51.2656 60.375 51.3906 60.9844 51.6406 61.5469C51.8906 62.0938 52.25 62.5625 52.7188 62.9531C53.1719 63.3594 53.7109 63.6797 54.3359 63.9141C54.9609 64.1328 55.6484 64.2422 56.3984 64.2422C57.2422 64.2422 58 64.125 58.6719 63.8906C59.3438 63.6562 59.9062 63.3125 60.3594 62.8594C60.7969 62.4531 61.125 61.9531 61.3438 61.3594C61.5781 60.7656 61.6953 60.1016 61.6953 59.3672C61.6953 58.4453 61.5625 57.6562 61.2969 57C61.0312 56.3438 60.6484 55.8047 60.1484 55.3828C59.6328 54.9609 59.0156 54.6484 58.2969 54.4453C57.5938 54.2422 56.7969 54.1406 55.9062 54.1406H52.3672V49.0781Z" fill="#C58DE7"/>
</svg>
