<svg width="113" height="112" viewBox="0 0 113 112" fill="none" xmlns="http://www.w3.org/2000/svg">
<rect x="88.5" y="-7" width="100" height="100" rx="28" transform="rotate(72 88.5 -7)" fill="#C58DE7"/>
<path d="M52.2188 81H21.1875V75.0625L35.9062 59.25C37.0521 58 38.0208 56.8646 38.8125 55.8438C39.6042 54.8229 40.25 53.8854 40.75 53.0312C41.2292 52.1979 41.5729 51.4167 41.7812 50.6875C42.0104 49.9583 42.125 49.25 42.125 48.5625C42.125 47.5417 41.9792 46.6354 41.6875 45.8438C41.3958 45.0521 40.9896 44.375 40.4688 43.8125C39.9271 43.2708 39.2812 42.8542 38.5312 42.5625C37.8021 42.2708 36.9896 42.125 36.0938 42.125C34.9271 42.125 33.8958 42.2917 33 42.625C32.125 42.9375 31.3958 43.4062 30.8125 44.0312C30.2083 44.6771 29.75 45.4792 29.4375 46.4375C29.125 47.3958 28.9688 48.4896 28.9688 49.7188H20.25C20.25 47.6979 20.6354 45.7917 21.4062 44C22.1771 42.1875 23.2708 40.6042 24.6875 39.25C26.0833 37.8958 27.7708 36.8333 29.75 36.0625C31.75 35.2708 33.9583 34.875 36.375 34.875C38.6875 34.875 40.7292 35.1979 42.5 35.8438C44.2917 36.4896 45.7917 37.3958 47 38.5625C48.1875 39.7292 49.0938 41.1354 49.7188 42.7812C50.3438 44.4062 50.6562 46.2083 50.6562 48.1875C50.6562 49.6875 50.4167 51.125 49.9375 52.5C49.4792 53.8542 48.8229 55.1979 47.9688 56.5312C47.0938 57.8646 46.0521 59.2292 44.8438 60.625C43.6354 62 42.2917 63.4479 40.8125 64.9688L32.25 74.0312H52.2188V81ZM69.6562 54.4375H74.375C75.625 54.4375 76.6979 54.2708 77.5938 53.9375C78.5104 53.5833 79.25 53.0938 79.8125 52.4688C80.3333 51.9271 80.7188 51.2708 80.9688 50.5C81.2396 49.7083 81.375 48.8542 81.375 47.9375C81.375 47.0417 81.2396 46.2292 80.9688 45.5C80.7188 44.75 80.3333 44.1042 79.8125 43.5625C79.2917 43.0417 78.625 42.6354 77.8125 42.3438C77.0208 42.0521 76.0938 41.9062 75.0312 41.9062C74.1562 41.9062 73.3333 42.0312 72.5625 42.2812C71.8125 42.5312 71.1562 42.8854 70.5938 43.3438C70.0104 43.8229 69.5521 44.3958 69.2188 45.0625C68.8854 45.7292 68.7188 46.4792 68.7188 47.3125H60.0312C60.0312 45.4583 60.4062 43.7708 61.1562 42.25C61.9271 40.7292 62.9792 39.4167 64.3125 38.3125C65.6458 37.2292 67.2083 36.3854 69 35.7812C70.8125 35.1771 72.7604 34.875 74.8438 34.875C77.0938 34.875 79.1562 35.1562 81.0312 35.7188C82.9062 36.2604 84.5104 37.0729 85.8438 38.1562C87.1771 39.2604 88.2083 40.625 88.9375 42.25C89.6875 43.8542 90.0625 45.7188 90.0625 47.8438C90.0625 48.8229 89.9167 49.7917 89.625 50.75C89.3333 51.6875 88.9062 52.5833 88.3438 53.4375C87.7812 54.2917 87.0833 55.0833 86.25 55.8125C85.4167 56.5208 84.4583 57.1354 83.375 57.6562C84.6458 58.1146 85.7396 58.6979 86.6562 59.4062C87.5938 60.1146 88.3646 60.9167 88.9688 61.8125C89.5729 62.7292 90.0208 63.7292 90.3125 64.8125C90.6042 65.8958 90.75 67.0417 90.75 68.25C90.75 70.375 90.3438 72.2708 89.5312 73.9375C88.7188 75.6042 87.6042 77 86.1875 78.125C84.7708 79.2708 83.0833 80.1458 81.125 80.75C79.1875 81.3333 77.0938 81.625 74.8438 81.625C72.9062 81.625 71.0104 81.3646 69.1562 80.8438C67.3229 80.3021 65.6875 79.4896 64.25 78.4062C62.8125 77.3438 61.6562 76 60.7812 74.375C59.9271 72.75 59.5 70.8333 59.5 68.625H68.1875C68.1875 69.5 68.3542 70.3125 68.6875 71.0625C69.0208 71.7917 69.5 72.4167 70.125 72.9375C70.7292 73.4792 71.4479 73.9062 72.2812 74.2188C73.1146 74.5104 74.0312 74.6562 75.0312 74.6562C76.1562 74.6562 77.1667 74.5 78.0625 74.1875C78.9583 73.875 79.7083 73.4167 80.3125 72.8125C80.8958 72.2708 81.3333 71.6042 81.625 70.8125C81.9375 70.0208 82.0938 69.1354 82.0938 68.1562C82.0938 66.9271 81.9167 65.875 81.5625 65C81.2083 64.125 80.6979 63.4062 80.0312 62.8438C79.3438 62.2812 78.5208 61.8646 77.5625 61.5938C76.625 61.3229 75.5625 61.1875 74.375 61.1875H69.6562V54.4375Z" fill="#030203"/>
</svg>
