<svg width="119" height="118" viewBox="0 0 119 118" fill="none" xmlns="http://www.w3.org/2000/svg">
<rect x="129.5" y="48" width="100" height="100" rx="28" transform="rotate(126 129.5 48)" fill="#C58DE7"/>
<path d="M55.2188 84H24.1875V78.0625L38.9062 62.25C40.0521 61 41.0208 59.8646 41.8125 58.8438C42.6042 57.8229 43.25 56.8854 43.75 56.0312C44.2292 55.1979 44.5729 54.4167 44.7812 53.6875C45.0104 52.9583 45.125 52.25 45.125 51.5625C45.125 50.5417 44.9792 49.6354 44.6875 48.8438C44.3958 48.0521 43.9896 47.375 43.4688 46.8125C42.9271 46.2708 42.2812 45.8542 41.5312 45.5625C40.8021 45.2708 39.9896 45.125 39.0938 45.125C37.9271 45.125 36.8958 45.2917 36 45.625C35.125 45.9375 34.3958 46.4062 33.8125 47.0312C33.2083 47.6771 32.75 48.4792 32.4375 49.4375C32.125 50.3958 31.9688 51.4896 31.9688 52.7188H23.25C23.25 50.6979 23.6354 48.7917 24.4062 47C25.1771 45.1875 26.2708 43.6042 27.6875 42.25C29.0833 40.8958 30.7708 39.8333 32.75 39.0625C34.75 38.2708 36.9583 37.875 39.375 37.875C41.6875 37.875 43.7292 38.1979 45.5 38.8438C47.2917 39.4896 48.7917 40.3958 50 41.5625C51.1875 42.7292 52.0938 44.1354 52.7188 45.7812C53.3438 47.4062 53.6562 49.2083 53.6562 51.1875C53.6562 52.6875 53.4167 54.125 52.9375 55.5C52.4792 56.8542 51.8229 58.1979 50.9688 59.5312C50.0938 60.8646 49.0521 62.2292 47.8438 63.625C46.6354 65 45.2917 66.4479 43.8125 67.9688L35.25 77.0312H55.2188V84ZM72.6562 57.4375H77.375C78.625 57.4375 79.6979 57.2708 80.5938 56.9375C81.5104 56.5833 82.25 56.0938 82.8125 55.4688C83.3333 54.9271 83.7188 54.2708 83.9688 53.5C84.2396 52.7083 84.375 51.8542 84.375 50.9375C84.375 50.0417 84.2396 49.2292 83.9688 48.5C83.7188 47.75 83.3333 47.1042 82.8125 46.5625C82.2917 46.0417 81.625 45.6354 80.8125 45.3438C80.0208 45.0521 79.0938 44.9062 78.0312 44.9062C77.1562 44.9062 76.3333 45.0312 75.5625 45.2812C74.8125 45.5312 74.1562 45.8854 73.5938 46.3438C73.0104 46.8229 72.5521 47.3958 72.2188 48.0625C71.8854 48.7292 71.7188 49.4792 71.7188 50.3125H63.0312C63.0312 48.4583 63.4062 46.7708 64.1562 45.25C64.9271 43.7292 65.9792 42.4167 67.3125 41.3125C68.6458 40.2292 70.2083 39.3854 72 38.7812C73.8125 38.1771 75.7604 37.875 77.8438 37.875C80.0938 37.875 82.1562 38.1562 84.0312 38.7188C85.9062 39.2604 87.5104 40.0729 88.8438 41.1562C90.1771 42.2604 91.2083 43.625 91.9375 45.25C92.6875 46.8542 93.0625 48.7188 93.0625 50.8438C93.0625 51.8229 92.9167 52.7917 92.625 53.75C92.3333 54.6875 91.9062 55.5833 91.3438 56.4375C90.7812 57.2917 90.0833 58.0833 89.25 58.8125C88.4167 59.5208 87.4583 60.1354 86.375 60.6562C87.6458 61.1146 88.7396 61.6979 89.6562 62.4062C90.5938 63.1146 91.3646 63.9167 91.9688 64.8125C92.5729 65.7292 93.0208 66.7292 93.3125 67.8125C93.6042 68.8958 93.75 70.0417 93.75 71.25C93.75 73.375 93.3438 75.2708 92.5312 76.9375C91.7188 78.6042 90.6042 80 89.1875 81.125C87.7708 82.2708 86.0833 83.1458 84.125 83.75C82.1875 84.3333 80.0938 84.625 77.8438 84.625C75.9062 84.625 74.0104 84.3646 72.1562 83.8438C70.3229 83.3021 68.6875 82.4896 67.25 81.4062C65.8125 80.3438 64.6562 79 63.7812 77.375C62.9271 75.75 62.5 73.8333 62.5 71.625H71.1875C71.1875 72.5 71.3542 73.3125 71.6875 74.0625C72.0208 74.7917 72.5 75.4167 73.125 75.9375C73.7292 76.4792 74.4479 76.9062 75.2812 77.2188C76.1146 77.5104 77.0312 77.6562 78.0312 77.6562C79.1562 77.6562 80.1667 77.5 81.0625 77.1875C81.9583 76.875 82.7083 76.4167 83.3125 75.8125C83.8958 75.2708 84.3333 74.6042 84.625 73.8125C84.9375 73.0208 85.0938 72.1354 85.0938 71.1562C85.0938 69.9271 84.9167 68.875 84.5625 68C84.2083 67.125 83.6979 66.4062 83.0312 65.8438C82.3438 65.2812 81.5208 64.8646 80.5625 64.5938C79.625 64.3229 78.5625 64.1875 77.375 64.1875H72.6562V57.4375Z" fill="#030203"/>
</svg>
